<?xml version="1.0" encoding="UTF-8"?>
<svg width="160" height="160" viewBox="0 0 160 160" xmlns="http://www.w3.org/2000/svg">
  <rect width="160" height="160" fill="transparent"/>
  
<rect x="10" y="0" width="10" height="10" fill="#FFFFE0"/>



<rect x="50" y="0" width="10" height="10" fill="#FFFF00"/>
<rect x="60" y="0" width="10" height="10" fill="#FFFF00"/>
<rect x="70" y="0" width="10" height="10" fill="#FFFF00"/>
<rect x="80" y="0" width="10" height="10" fill="#FFFF00"/>



<rect x="120" y="0" width="10" height="10" fill="#FFFFE0"/>



<rect x="0" y="10" width="10" height="10" fill="#FFFFE0"/>
<rect x="10" y="10" width="10" height="10" fill="#FFFF00"/>
<rect x="20" y="10" width="10" height="10" fill="#FFFFE0"/>

<rect x="40" y="10" width="10" height="10" fill="#FFFF00"/>
<rect x="50" y="10" width="10" height="10" fill="#FFD700"/>
<rect x="60" y="10" width="10" height="10" fill="#FFD700"/>
<rect x="70" y="10" width="10" height="10" fill="#FFD700"/>
<rect x="80" y="10" width="10" height="10" fill="#FFD700"/>
<rect x="90" y="10" width="10" height="10" fill="#FFFF00"/>

<rect x="110" y="10" width="10" height="10" fill="#FFFFE0"/>
<rect x="120" y="10" width="10" height="10" fill="#FFFF00"/>
<rect x="130" y="10" width="10" height="10" fill="#FFFFE0"/>



<rect x="10" y="20" width="10" height="10" fill="#FFFFE0"/>
<rect x="20" y="20" width="10" height="10" fill="#FFFF00"/>
<rect x="30" y="20" width="10" height="10" fill="#FFFF00"/>
<rect x="40" y="20" width="10" height="10" fill="#FFD700"/>
<rect x="50" y="20" width="10" height="10" fill="#FFD700"/>
<rect x="60" y="20" width="10" height="10" fill="#FFD700"/>
<rect x="70" y="20" width="10" height="10" fill="#FFD700"/>
<rect x="80" y="20" width="10" height="10" fill="#FFD700"/>
<rect x="90" y="20" width="10" height="10" fill="#FFD700"/>
<rect x="100" y="20" width="10" height="10" fill="#FFFF00"/>
<rect x="110" y="20" width="10" height="10" fill="#FFFF00"/>
<rect x="120" y="20" width="10" height="10" fill="#FFFFE0"/>





<rect x="20" y="30" width="10" height="10" fill="#FFFF00"/>
<rect x="30" y="30" width="10" height="10" fill="#FFD700"/>
<rect x="40" y="30" width="10" height="10" fill="#FFD700"/>
<rect x="50" y="30" width="10" height="10" fill="#FFFFFF"/>
<rect x="60" y="30" width="10" height="10" fill="#FFFFFF"/>
<rect x="70" y="30" width="10" height="10" fill="#FFD700"/>
<rect x="80" y="30" width="10" height="10" fill="#FFD700"/>
<rect x="90" y="30" width="10" height="10" fill="#FFFFFF"/>
<rect x="100" y="30" width="10" height="10" fill="#FFFFFF"/>
<rect x="110" y="30" width="10" height="10" fill="#FFD700"/>
<rect x="120" y="30" width="10" height="10" fill="#FFFF00"/>




<rect x="10" y="40" width="10" height="10" fill="#FFFFE0"/>
<rect x="20" y="40" width="10" height="10" fill="#FFD700"/>
<rect x="30" y="40" width="10" height="10" fill="#FFD700"/>
<rect x="40" y="40" width="10" height="10" fill="#FFFFFF"/>
<rect x="50" y="40" width="10" height="10" fill="#FFD700"/>
<rect x="60" y="40" width="10" height="10" fill="#FFFFFF"/>
<rect x="70" y="40" width="10" height="10" fill="#FFD700"/>
<rect x="80" y="40" width="10" height="10" fill="#FFD700"/>
<rect x="90" y="40" width="10" height="10" fill="#FFFFFF"/>
<rect x="100" y="40" width="10" height="10" fill="#FFD700"/>
<rect x="110" y="40" width="10" height="10" fill="#FFFFFF"/>
<rect x="120" y="40" width="10" height="10" fill="#FFD700"/>
<rect x="130" y="40" width="10" height="10" fill="#FFFFE0"/>


<rect x="0" y="50" width="10" height="10" fill="#FFFFE0"/>
<rect x="10" y="50" width="10" height="10" fill="#FFFF00"/>
<rect x="20" y="50" width="10" height="10" fill="#FFD700"/>
<rect x="30" y="50" width="10" height="10" fill="#FFD700"/>
<rect x="40" y="50" width="10" height="10" fill="#FFD700"/>
<rect x="50" y="50" width="10" height="10" fill="#FFD700"/>
<rect x="60" y="50" width="10" height="10" fill="#FFD700"/>
<rect x="70" y="50" width="10" height="10" fill="#FFD700"/>
<rect x="80" y="50" width="10" height="10" fill="#FFD700"/>
<rect x="90" y="50" width="10" height="10" fill="#FFD700"/>
<rect x="100" y="50" width="10" height="10" fill="#FFD700"/>
<rect x="110" y="50" width="10" height="10" fill="#FFD700"/>
<rect x="120" y="50" width="10" height="10" fill="#FFD700"/>
<rect x="130" y="50" width="10" height="10" fill="#FFFF00"/>
<rect x="140" y="50" width="10" height="10" fill="#FFFFE0"/>

<rect x="0" y="60" width="10" height="10" fill="#FFFF00"/>
<rect x="10" y="60" width="10" height="10" fill="#FFD700"/>
<rect x="20" y="60" width="10" height="10" fill="#FFF8DC"/>
<rect x="30" y="60" width="10" height="10" fill="#FFF8DC"/>
<rect x="40" y="60" width="10" height="10" fill="#FFF8DC"/>
<rect x="50" y="60" width="10" height="10" fill="#FFF8DC"/>
<rect x="60" y="60" width="10" height="10" fill="#FFD700"/>
<rect x="70" y="60" width="10" height="10" fill="#FFD700"/>
<rect x="80" y="60" width="10" height="10" fill="#FFF8DC"/>
<rect x="90" y="60" width="10" height="10" fill="#FFF8DC"/>
<rect x="100" y="60" width="10" height="10" fill="#FFF8DC"/>
<rect x="110" y="60" width="10" height="10" fill="#FFF8DC"/>
<rect x="120" y="60" width="10" height="10" fill="#FFD700"/>
<rect x="130" y="60" width="10" height="10" fill="#FFFF00"/>


<rect x="0" y="70" width="10" height="10" fill="#FFFF00"/>
<rect x="10" y="70" width="10" height="10" fill="#FFD700"/>
<rect x="20" y="70" width="10" height="10" fill="#FFF8DC"/>
<rect x="30" y="70" width="10" height="10" fill="#FFF8DC"/>
<rect x="40" y="70" width="10" height="10" fill="#FFF8DC"/>
<rect x="50" y="70" width="10" height="10" fill="#FFF8DC"/>
<rect x="60" y="70" width="10" height="10" fill="#FFF8DC"/>
<rect x="70" y="70" width="10" height="10" fill="#FFF8DC"/>
<rect x="80" y="70" width="10" height="10" fill="#FFF8DC"/>
<rect x="90" y="70" width="10" height="10" fill="#FFF8DC"/>
<rect x="100" y="70" width="10" height="10" fill="#FFF8DC"/>
<rect x="110" y="70" width="10" height="10" fill="#FFF8DC"/>
<rect x="120" y="70" width="10" height="10" fill="#FFD700"/>
<rect x="130" y="70" width="10" height="10" fill="#FFFF00"/>


<rect x="0" y="80" width="10" height="10" fill="#FFFFE0"/>
<rect x="10" y="80" width="10" height="10" fill="#FFD700"/>
<rect x="20" y="80" width="10" height="10" fill="#FFD700"/>
<rect x="30" y="80" width="10" height="10" fill="#FFF8DC"/>
<rect x="40" y="80" width="10" height="10" fill="#FFF8DC"/>
<rect x="50" y="80" width="10" height="10" fill="#FFF8DC"/>
<rect x="60" y="80" width="10" height="10" fill="#FFF8DC"/>
<rect x="70" y="80" width="10" height="10" fill="#FFF8DC"/>
<rect x="80" y="80" width="10" height="10" fill="#FFF8DC"/>
<rect x="90" y="80" width="10" height="10" fill="#FFF8DC"/>
<rect x="100" y="80" width="10" height="10" fill="#FFF8DC"/>
<rect x="110" y="80" width="10" height="10" fill="#FFD700"/>
<rect x="120" y="80" width="10" height="10" fill="#FFD700"/>
<rect x="130" y="80" width="10" height="10" fill="#FFFFE0"/>



<rect x="10" y="90" width="10" height="10" fill="#FFFF00"/>
<rect x="20" y="90" width="10" height="10" fill="#FFD700"/>
<rect x="30" y="90" width="10" height="10" fill="#FFD700"/>
<rect x="40" y="90" width="10" height="10" fill="#FFD700"/>
<rect x="50" y="90" width="10" height="10" fill="#FFF8DC"/>
<rect x="60" y="90" width="10" height="10" fill="#FFF8DC"/>
<rect x="70" y="90" width="10" height="10" fill="#FFF8DC"/>
<rect x="80" y="90" width="10" height="10" fill="#FFF8DC"/>
<rect x="90" y="90" width="10" height="10" fill="#FFD700"/>
<rect x="100" y="90" width="10" height="10" fill="#FFD700"/>
<rect x="110" y="90" width="10" height="10" fill="#FFD700"/>
<rect x="120" y="90" width="10" height="10" fill="#FFFF00"/>




<rect x="10" y="100" width="10" height="10" fill="#FFFFE0"/>
<rect x="20" y="100" width="10" height="10" fill="#FFFF00"/>
<rect x="30" y="100" width="10" height="10" fill="#FFD700"/>
<rect x="40" y="100" width="10" height="10" fill="#FFD700"/>
<rect x="50" y="100" width="10" height="10" fill="#FFD700"/>
<rect x="60" y="100" width="10" height="10" fill="#FFD700"/>
<rect x="70" y="100" width="10" height="10" fill="#FFD700"/>
<rect x="80" y="100" width="10" height="10" fill="#FFD700"/>
<rect x="90" y="100" width="10" height="10" fill="#FFD700"/>
<rect x="100" y="100" width="10" height="10" fill="#FFD700"/>
<rect x="110" y="100" width="10" height="10" fill="#FFFF00"/>
<rect x="120" y="100" width="10" height="10" fill="#FFFFE0"/>



<rect x="0" y="110" width="10" height="10" fill="#FFFFE0"/>
<rect x="10" y="110" width="10" height="10" fill="#FFFF00"/>
<rect x="20" y="110" width="10" height="10" fill="#FFFFE0"/>
<rect x="30" y="110" width="10" height="10" fill="#FFFF00"/>
<rect x="40" y="110" width="10" height="10" fill="#FFD700"/>
<rect x="50" y="110" width="10" height="10" fill="#FFD700"/>
<rect x="60" y="110" width="10" height="10" fill="#FFD700"/>
<rect x="70" y="110" width="10" height="10" fill="#FFD700"/>
<rect x="80" y="110" width="10" height="10" fill="#FFD700"/>
<rect x="90" y="110" width="10" height="10" fill="#FFD700"/>
<rect x="100" y="110" width="10" height="10" fill="#FFFF00"/>
<rect x="110" y="110" width="10" height="10" fill="#FFFFE0"/>
<rect x="120" y="110" width="10" height="10" fill="#FFFF00"/>
<rect x="130" y="110" width="10" height="10" fill="#FFFFE0"/>



<rect x="10" y="120" width="10" height="10" fill="#FFFFE0"/>

<rect x="30" y="120" width="10" height="10" fill="#FFFFE0"/>
<rect x="40" y="120" width="10" height="10" fill="#FFFF00"/>
<rect x="50" y="120" width="10" height="10" fill="#FFD700"/>
<rect x="60" y="120" width="10" height="10" fill="#FFD700"/>
<rect x="70" y="120" width="10" height="10" fill="#FFD700"/>
<rect x="80" y="120" width="10" height="10" fill="#FFD700"/>
<rect x="90" y="120" width="10" height="10" fill="#FFFF00"/>
<rect x="100" y="120" width="10" height="10" fill="#FFFFE0"/>

<rect x="120" y="120" width="10" height="10" fill="#FFFFE0"/>







<rect x="40" y="130" width="10" height="10" fill="#FFFFE0"/>
<rect x="50" y="130" width="10" height="10" fill="#FFFF00"/>
<rect x="60" y="130" width="10" height="10" fill="#FFD700"/>
<rect x="70" y="130" width="10" height="10" fill="#FFD700"/>
<rect x="80" y="130" width="10" height="10" fill="#FFFF00"/>
<rect x="90" y="130" width="10" height="10" fill="#FFFFE0"/>











<rect x="50" y="140" width="10" height="10" fill="#FFFFE0"/>
<rect x="60" y="140" width="10" height="10" fill="#FFFF00"/>
<rect x="70" y="140" width="10" height="10" fill="#FFFF00"/>
<rect x="80" y="140" width="10" height="10" fill="#FFFFE0"/>













<rect x="60" y="150" width="10" height="10" fill="#FFFFE0"/>
<rect x="70" y="150" width="10" height="10" fill="#FFFFE0"/>








  <rect x="10" y="0" width="10" height="1" fill="black"/>
<rect x="10" y="0" width="1" height="10" fill="black"/>
<rect x="19" y="0" width="1" height="10" fill="black"/>
<rect x="50" y="0" width="10" height="1" fill="black"/>
<rect x="50" y="0" width="1" height="10" fill="black"/>
<rect x="60" y="0" width="10" height="1" fill="black"/>
<rect x="70" y="0" width="10" height="1" fill="black"/>
<rect x="80" y="0" width="10" height="1" fill="black"/>
<rect x="89" y="0" width="1" height="10" fill="black"/>
<rect x="120" y="0" width="10" height="1" fill="black"/>
<rect x="120" y="0" width="1" height="10" fill="black"/>
<rect x="129" y="0" width="1" height="10" fill="black"/>
<rect x="0" y="10" width="10" height="1" fill="black"/>
<rect x="0" y="19" width="10" height="1" fill="black"/>
<rect x="0" y="10" width="1" height="10" fill="black"/>
<rect x="20" y="10" width="10" height="1" fill="black"/>
<rect x="29" y="10" width="1" height="10" fill="black"/>
<rect x="40" y="10" width="10" height="1" fill="black"/>
<rect x="40" y="10" width="1" height="10" fill="black"/>
<rect x="90" y="10" width="10" height="1" fill="black"/>
<rect x="99" y="10" width="1" height="10" fill="black"/>
<rect x="110" y="10" width="10" height="1" fill="black"/>
<rect x="110" y="10" width="1" height="10" fill="black"/>
<rect x="130" y="10" width="10" height="1" fill="black"/>
<rect x="130" y="19" width="10" height="1" fill="black"/>
<rect x="139" y="10" width="1" height="10" fill="black"/>
<rect x="10" y="29" width="10" height="1" fill="black"/>
<rect x="10" y="20" width="1" height="10" fill="black"/>
<rect x="30" y="20" width="10" height="1" fill="black"/>
<rect x="100" y="20" width="10" height="1" fill="black"/>
<rect x="129" y="20" width="1" height="10" fill="black"/>
<rect x="20" y="30" width="1" height="10" fill="black"/>
<rect x="129" y="30" width="1" height="10" fill="black"/>
<rect x="10" y="40" width="10" height="1" fill="black"/>
<rect x="10" y="40" width="1" height="10" fill="black"/>
<rect x="130" y="40" width="10" height="1" fill="black"/>
<rect x="139" y="40" width="1" height="10" fill="black"/>
<rect x="0" y="50" width="10" height="1" fill="black"/>
<rect x="0" y="50" width="1" height="10" fill="black"/>
<rect x="140" y="50" width="10" height="1" fill="black"/>
<rect x="140" y="59" width="10" height="1" fill="black"/>
<rect x="149" y="50" width="1" height="10" fill="black"/>
<rect x="0" y="60" width="1" height="10" fill="black"/>
<rect x="139" y="60" width="1" height="10" fill="black"/>
<rect x="0" y="70" width="1" height="10" fill="black"/>
<rect x="139" y="70" width="1" height="10" fill="black"/>
<rect x="0" y="89" width="10" height="1" fill="black"/>
<rect x="0" y="80" width="1" height="10" fill="black"/>
<rect x="130" y="89" width="10" height="1" fill="black"/>
<rect x="139" y="80" width="1" height="10" fill="black"/>
<rect x="10" y="90" width="1" height="10" fill="black"/>
<rect x="129" y="90" width="1" height="10" fill="black"/>
<rect x="10" y="100" width="1" height="10" fill="black"/>
<rect x="129" y="100" width="1" height="10" fill="black"/>
<rect x="0" y="110" width="10" height="1" fill="black"/>
<rect x="0" y="119" width="10" height="1" fill="black"/>
<rect x="0" y="110" width="1" height="10" fill="black"/>
<rect x="20" y="119" width="10" height="1" fill="black"/>
<rect x="110" y="119" width="10" height="1" fill="black"/>
<rect x="130" y="110" width="10" height="1" fill="black"/>
<rect x="130" y="119" width="10" height="1" fill="black"/>
<rect x="139" y="110" width="1" height="10" fill="black"/>
<rect x="10" y="129" width="10" height="1" fill="black"/>
<rect x="10" y="120" width="1" height="10" fill="black"/>
<rect x="19" y="120" width="1" height="10" fill="black"/>
<rect x="30" y="129" width="10" height="1" fill="black"/>
<rect x="30" y="120" width="1" height="10" fill="black"/>
<rect x="100" y="129" width="10" height="1" fill="black"/>
<rect x="109" y="120" width="1" height="10" fill="black"/>
<rect x="120" y="129" width="10" height="1" fill="black"/>
<rect x="120" y="120" width="1" height="10" fill="black"/>
<rect x="129" y="120" width="1" height="10" fill="black"/>
<rect x="40" y="139" width="10" height="1" fill="black"/>
<rect x="40" y="130" width="1" height="10" fill="black"/>
<rect x="90" y="139" width="10" height="1" fill="black"/>
<rect x="99" y="130" width="1" height="10" fill="black"/>
<rect x="50" y="149" width="10" height="1" fill="black"/>
<rect x="50" y="140" width="1" height="10" fill="black"/>
<rect x="80" y="149" width="10" height="1" fill="black"/>
<rect x="89" y="140" width="1" height="10" fill="black"/>
<rect x="60" y="159" width="10" height="1" fill="black"/>
<rect x="60" y="150" width="1" height="10" fill="black"/>
<rect x="70" y="159" width="10" height="1" fill="black"/>
<rect x="79" y="150" width="1" height="10" fill="black"/>
</svg>